<svg enable-background="new 0 0 110 110" height="512" viewBox="0 0 110 110" width="512" xmlns="http://www.w3.org/2000/svg"><path d="m83.585762 31.5154896c.7578125-1.2751923.6850586-2.946537-.1798248-4.1516857-.9658813-1.3458767-2.5134964-1.8340721-3.9253235-1.5466328.1385803-1.4341793-.5085678-2.922554-1.9479752-3.7426853-1.2888412-.7343445-2.9586334-.6322231-4.1477585.2545452-1.1290283.8419495-1.6393509 2.1001034-1.5647507 3.3261242.1304703 2.1443424-.8056183 4.2186298-2.2432709 5.8149929l-8.3642883 9.2876492 5.3148117 4.7864227 8.3641968-9.2875443c1.4375916-1.5962944 3.402771-2.743988 5.5489426-2.8377266 1.2273255-.0536079 2.4256058-.6925239 3.1452408-1.9034595z" fill="#ededed"/><path d="m73.5224686 37.7769279.7471466-.829628-5.3148117-4.7864227-.7472076.8296967c-2.9532547 3.279274-7.0311737 5.3708763-11.4318237 5.7019997-4.7541313.3577194-9.9876747 2.9880562-14.1055794 7.5605507-6.989048 7.7605858-8.1045914 18.1496925-2.4915733 23.2046776s15.8291016 2.8616562 22.8181458-4.8989334c4.1179047-4.5724945 6.1878052-10.0519142 6.0475464-14.8174019-.1298296-4.4112473 1.5248564-8.6852113 4.4781569-11.9645387z" fill="#d6683d"/><path d="m73.1723862 35.9591522-.8110275.8979301c-2.9520874 3.2865448-4.6011658 7.5531807-4.4742661 11.9698029.1383743 4.762558-1.925827 10.2400665-6.0540886 14.8181458-6.5730286 7.2994499-15.9943237 9.6749611-21.7601242 5.7080879.0345612.0346298.0691872.0691833.1037483.1038132 5.6158829 5.0508499 15.832859 2.8598175 22.8210754-4.9009323 4.1167221-4.5665359 6.1924667-10.0440445 6.0425491-14.8180733-.1268997-4.4050789 1.5336533-8.6833267 4.4857407-11.9583321l.7380371-.8302422z" fill="#963e25"/><path d="m98.0429993 79.507164c0 8.6600037-21.5220718 8.6762695-43.044136 8.8488693s-43.044136.5015411-43.044136-8.1584625c0-2.9406891 4.3311462-6.5997391 5.3240852-9.5020828 4.8552513-14.1918259 20.7549515-26.7983093 39.6201134-26.7983093 22.7232436-.0000001 41.1440734 18.2899894 41.1440734 35.6099853z" fill="#c45431"/><path d="m98.0452728 79.5048294c0 8.6599731-21.5199585 8.6799927-43.0499878 8.8499756-21.5200195.1699829-43.039978.5-43.039978-8.1599731 0-1.4200439 1.0100098-3.0100098 2.1699829-4.6000366.0200195 8.6500244 21.5299683 8.3200073 43.039978 8.1500244 17.4500122-.1400146 34.8800049-.1799927 40.8699951-4.7999878.0100098.1900024.0100098.3699951.0100098.5599975z" fill="#963e25"/><path d="m97.5207214 37.2237854c.7578125-1.2751923.685051-2.946537-.1798248-4.1516838-.9658813-1.3458767-2.5134964-1.8340721-3.9253235-1.5466328.1385803-1.4341793-.5085678-2.922554-1.9479752-3.7426853-1.2888412-.7343445-2.9586334-.632225-4.1477585.2545433-1.1290283.8419514-1.6393509 2.1001053-1.5647507 3.3261242.1304703 2.1443424-.8056183 4.2186298-2.2432709 5.8149929l-8.3642883 9.2876472 5.3148117 4.7864265 8.3641968-9.2875443c1.4375916-1.5962982 3.402771-2.743988 5.5489426-2.8377304 1.2273255-.0536078 2.4256058-.69252 3.1452408-1.9034575z" fill="#ededed"/><path d="m87.457428 43.4852257.7471466-.829628-5.3148117-4.7864265-.7472076.8297005c-2.9532547 3.279274-7.0311737 5.3708763-11.4318237 5.7019958-4.7541351.3577194-9.9876747 2.98806-14.1055794 7.5605507-6.989048 7.7605896-8.1045914 18.1496964-2.4915733 23.2046814 5.613018 5.0549774 15.8291016 2.8616562 22.8181458-4.8989334 4.1179047-4.5724945 6.1878052-10.0519142 6.0475464-14.8174057-.1298296-4.4112473 1.5248564-8.6852112 4.4781569-11.9645348z" fill="#d6683d"/><g fill="#963e25"><path d="m88.2057648 42.6575089-.749588.8302422c-2.9520798 3.2750053-4.6010895 7.5531807-4.4742584 11.9582596.1383667 4.7741013-1.9373016 10.251606-6.0540924 14.8181496-6.9881439 7.7607422-17.2051277 9.9517746-22.8094673 4.9009247-.1499138-.1383667-.2998314-.276741-.4382057-.4151154 5.6619835 4.7163849 15.6368484 2.4677048 22.4981613-5.1546631 4.1282578-4.5780106 6.1924591-10.0555191 6.0540924-14.8180771-.1269073-4.4166222 1.5221786-8.6833267 4.4742661-11.9698029l.7495041-.8303146z"/><path d="m78.2424469 65.962822c1.9488373-2.1678734 3.4363937-4.5319061 4.4511795-6.9304276-.7034149 3.793869-2.6522522 7.7722855-5.7658005 11.2317657-6.9881439 7.7607422-17.2051277 9.9517746-22.8094673 4.9009247-4.0475998-3.6440201-4.6010933-10.067131-1.9603844-16.282608-.899498 4.7279282.1499176 9.1791077 3.2634621 11.9812775 5.6158829 5.0508423 15.8213158 2.8598861 22.8210106-4.9009323z"/></g></svg>