<svg enable-background="new 0 0 110 110" height="512" viewBox="0 0 110 110" width="512" xmlns="http://www.w3.org/2000/svg"><path d="m8.5425253 37.312355c.8634367 24.9253273 21.3287287 44.8696671 46.4644289 44.8696671 25.1345406 0 45.5856895-19.9455757 46.4505196-44.8696671z" fill="#dd584d"/><path d="m55.0003738 28.8479748c-27.8358383 0-43.8362312 5.6228352-44.6069946 8.5280704.7707615 3.0150108 16.7711544 8.6378441 44.6069946 8.6378441s43.8362274-5.6228333 44.606987-8.5280685c-.7707595-3.0150109-16.7711486-8.637846-44.606987-8.637846z" fill="#a64139"/><path d="m55.0003738 34.3601227c-26.2656021 0-41.6501579 4.291256-42.3774414 5.9070015.7272825 1.676796 16.1169815 5.6212654 42.3825836 5.6212654s41.8067017-4.3579788 42.5339813-5.9737244c-.7272796-1.6767959-16.273529-5.5545425-42.5391235-5.5545425z" fill="#feda6f"/><path d="m54.3955879 82.1739807c-15.8789444-.3990402-29.0190239-16.6768188-31.7911854-38.0560264-.0997581-.765049-.1884861-1.5414696-.2550163-2.3287201 2.5392742.5322304 5.4888916 1.0200653 8.8265839 1.4418488.0554295.765049.1330566 1.5187302.2217846 2.2621231 2.2842598 20.6022453 11.6763038 36.1377067 22.9978332 36.6807746z" fill="#ededed" opacity=".25"/><path d="m55.0055161 27.8179779c-25.6592007 0-46.4615021 4.2464943-46.4615021 9.4914017 0 2.6725349 5.3891306 5.0786819 14.0603876 6.8085747 2.6502018.5322342 5.5998192.9870415 8.7933521 1.3752518 6.9193039.8424797 14.9917984 1.3194847 23.6077614 1.3194847 8.6158943 0 16.6772232-.477005 23.5965271-1.3194847 3.1935349-.3882103 6.1431503-.8430176 8.7933502-1.3752518 8.671257-1.7298927 14.060318-4.1360397 14.060318-6.8085747.000001-5.2449074-20.8022985-9.4914017-46.4501943-9.4914017zm32.6448974 13.9826241c-2.5504456.5322342-5.4999237 1.0200691-8.8265152 1.430481-6.5202637.8202744-14.4929352 1.3638802-23.8183823 1.3638802-9.3256531 0-17.3094215-.5436058-23.829546-1.3638802-3.3376923-.4217834-6.2873096-.9096184-8.8265839-1.4418488h-.0110989c-7.2187166-1.4857063-11.2216997-3.2708244-11.5876436-4.5242538.7651186-2.4613762 16.644062-7.2292747 44.2548714-7.2292747 27.5995102 0 43.4785156 4.7678986 44.2435684 7.3180695-.3769749 1.20903-4.379958 2.9719504-11.5986699 4.4468268z" fill="#d6524c"/><g fill="#4abba4"><path d="m73.8638611 38.09795c-.2182007-.0170593-.4312134.043148-.6391602.0916481-.6218262.1451645-1.2911377.1940002-1.9437256.1421547-.0952148-.0076942-.1958008-.0190659-.2683716-.0618782-.1922607-.1137238-.050415-.3237801-.0363159-.4977074.0353394-.4365005-.8314819-.7111092-1.3617554-.7549248-1.0214844-.0842896-.9782104.1980133-1.0819092.7749939-.1581421.8800201-.7472534 1.2262077-1.5756226 1.8366356-.5996704.4418526-1.2736816 1.4396095-.2687988 1.9001923.5324707.2441711 1.6104126-.0076942 1.8388672-.4124184.2260132-.4003754-.4042358-.8074379-.2035522-1.2208557.1676025-.3451843.8088379-.4455299 1.3399048-.4375038.1837158.0026779.3701782.012043.5427856.055191.1914673.0481644.355896.1347961.5323486.2047005.9606323.3806419 2.24646.2140694 3.1037598-.2685852.324585-.1829643.6122437-.4241257.6613159-.7101059.0491334-.2859802-.2222899-.608757-.6397704-.6415367z"/><path d="m39.4667969 38.6622429c-.2182007-.0128632-.4312134.0325356-.6391602.0691071-.6218262.1094666-1.2911377.1462898-1.9437256.107193-.0952148-.0057983-.1958008-.0143738-.2683716-.0466576-.1922607-.0857582-.050415-.2441521-.0363159-.375309.0353394-.3291473-.8314819-.5362244-1.3617554-.5692635-1.0214844-.0635605-.9782104.1493149-1.0819092.5843964-.1581421.6635971-.7472534.9246483-1.5756226 1.3849525-.5996704.3331833-1.2736816 1.0855637-.2687988 1.4328728.5324707.184124 1.6104126-.0058022 1.8388672-.3109894.2260132-.3019104-.4042358-.6088638-.2035522-.9206085.1676025-.2602959.8088379-.3359604 1.3399048-.3299065.1837158.0020142.3701782.009079.5427856.0416145.1914673.0363197.355896.1016464.5323486.1543617.9606323.2870255 2.24646.1614189 3.1037598-.2025375.324585-.1379623.6122437-.3198166.6613159-.5354652.0491334-.2156486-.22229-.4590454-.6397704-.4837608z"/><path d="m54.6626892 38.37323c-.3636475-.0187302-.7217407.0515099-1.0713501.1247597-.3062134-.1648979-.682373-.2665825-1.0731812-.2545395-.3529663.010704-.7019043.0980034-1.0521851.066227-.3788452-.0341148-.6993408-.2010231-1.0489502-.3067207-1.1539307-.3488617-2.6732178.0933228-3.1074829.904438-.4973755.0739212-1.0349121.0561943-1.4852905.2184181-.4503174.1622238-.7284546.6228065-.3530273.8579445.2074585.1301155.5192871.1344604.8002319.1257668.4367676-.0137138.8828125-.0408096 1.3044434.0384636s.8225708.2930069.8991089.5876846c-.1824951-.0076942-.3674316.0123749-.5377197.0578651.0355835.3378258.6372681.5823326 1.086792.4415169.7382202-.230793.5963745-1.0753593 1.2921143-1.3613396.0446167-.0183983.0953369-.0344543.1469727-.0297699.0455933.0040131.085083.0234146.1188965.044487.3831177.24049.0617065.7743225-.4573364.7596054-.0697632.1832962.0234375.4020462.262146.4973755.2387085.0956612.6047363.0167236.6735229-.1665726.0291138-.0779343.0065308-.1618881.0422974-.2384834.0797119-.1699181.3930054-.2227669.5691528-.3545532.2568359-.1919899.1668091-.4920197.1008301-.7485695-.065979-.2568817-.0343018-.5873489.3165894-.6880264.3410645-.0976677.7255859.1267662.8012695.3746185s-.052124.5003853-.1443481.7455597c-.0922852.2451744-.1419678.5247993.0640259.7351913.6137695-.0839577 1.3620605.1735954 1.819519-.1190758.1328735-.0849609.2089233-.2023621.2815552-.3164215.1664429-.2615623.3328857-.5231285.4992676-.784359.1621094-.2545395.3259888-.5428619.1787109-.8014183-.1408693-.2478485-.5397951-.3900032-.9265749-.4100723z"/></g><g fill="#d6683d"><path d="m85.1303864 40.8446617c-.0126724-.9422455-1.4301376-1.9717178-3.3526764-2.3716125-1.9225311-.3998909-3.6329422-.0210304-4.0202789.8380127z"/><path d="m64.7033463 38.3662567c-.2022247-1.3312912-2.4100342-2.5112877-5.2096405-2.7013168s-5.1466217.6807976-5.5268898 1.9725533z"/><path d="m44.9127846 42.8337364c-.1161766-.7648277-1.3845596-1.4427338-2.9929314-1.5519028-1.6083679-.1091728-2.9567261.3911133-3.17519 1.1332245z"/></g></svg>